<mxfile host="app.diagrams.net" modified="2021-03-30T15:21:31.031Z" agent="5.0 (Macintosh; Intel Mac OS X 10_15_6) AppleWebKit/605.1.15 (KHTML, like Gecko) Version/14.0.3 Safari/605.1.15" etag="1GRAWK85q7RXWO4J4OW0" version="14.4.9" type="github">
  <diagram id="QpqDZ9xAP8Kvems6RyDm" name="第 1 页">
    <mxGraphModel dx="937" dy="541" grid="1" gridSize="10" guides="1" tooltips="1" connect="1" arrows="1" fold="1" page="1" pageScale="1" pageWidth="827" pageHeight="1169" math="0" shadow="0">
      <root>
        <mxCell id="0" />
        <mxCell id="1" parent="0" />
        <mxCell id="1cu4soE6AQDdloq3SPaZ-13" style="edgeStyle=orthogonalEdgeStyle;rounded=0;orthogonalLoop=1;jettySize=auto;html=1;entryX=0.25;entryY=0;entryDx=0;entryDy=0;verticalAlign=middle;fontSize=16;" edge="1" parent="1" source="1cu4soE6AQDdloq3SPaZ-1" target="1cu4soE6AQDdloq3SPaZ-3">
          <mxGeometry relative="1" as="geometry">
            <Array as="points">
              <mxPoint x="180" y="160" />
              <mxPoint x="384" y="160" />
            </Array>
          </mxGeometry>
        </mxCell>
        <mxCell id="1cu4soE6AQDdloq3SPaZ-1" value="线程 A&amp;nbsp;" style="ellipse;whiteSpace=wrap;html=1;aspect=fixed;fillColor=#dae8fc;strokeColor=#6c8ebf;fontSize=16;verticalAlign=middle;" vertex="1" parent="1">
          <mxGeometry x="140" y="230" width="80" height="80" as="geometry" />
        </mxCell>
        <mxCell id="1cu4soE6AQDdloq3SPaZ-2" style="edgeStyle=orthogonalEdgeStyle;rounded=0;orthogonalLoop=1;jettySize=auto;html=1;entryX=0.5;entryY=1;entryDx=0;entryDy=0;startArrow=classic;startFill=1;endArrow=none;endFill=0;exitX=0.25;exitY=1;exitDx=0;exitDy=0;fontSize=16;verticalAlign=middle;" edge="1" parent="1" source="1cu4soE6AQDdloq3SPaZ-3" target="1cu4soE6AQDdloq3SPaZ-1">
          <mxGeometry relative="1" as="geometry">
            <Array as="points">
              <mxPoint x="384" y="360" />
              <mxPoint x="180" y="360" />
            </Array>
          </mxGeometry>
        </mxCell>
        <mxCell id="1cu4soE6AQDdloq3SPaZ-3" value="资源" style="rounded=1;whiteSpace=wrap;html=1;fontSize=16;fillColor=#d5e8d4;strokeColor=#82b366;verticalAlign=middle;" vertex="1" parent="1">
          <mxGeometry x="353.5" y="240" width="120" height="60" as="geometry" />
        </mxCell>
        <mxCell id="1cu4soE6AQDdloq3SPaZ-4" style="edgeStyle=orthogonalEdgeStyle;rounded=0;orthogonalLoop=1;jettySize=auto;html=1;startArrow=none;startFill=0;endArrow=classic;endFill=1;fontSize=16;verticalAlign=middle;" edge="1" parent="1" source="1cu4soE6AQDdloq3SPaZ-5">
          <mxGeometry relative="1" as="geometry">
            <mxPoint x="440" y="300" as="targetPoint" />
            <Array as="points">
              <mxPoint x="650" y="360" />
              <mxPoint x="440" y="360" />
              <mxPoint x="440" y="300" />
            </Array>
          </mxGeometry>
        </mxCell>
        <mxCell id="1cu4soE6AQDdloq3SPaZ-5" value="线程 B&amp;nbsp;" style="ellipse;whiteSpace=wrap;html=1;aspect=fixed;fillColor=#ffe6cc;strokeColor=#d79b00;fontSize=16;verticalAlign=middle;" vertex="1" parent="1">
          <mxGeometry x="610" y="230" width="80" height="80" as="geometry" />
        </mxCell>
        <mxCell id="1cu4soE6AQDdloq3SPaZ-6" value="" style="shape=flexArrow;endArrow=classic;html=1;fontSize=16;verticalAlign=middle;" edge="1" parent="1">
          <mxGeometry width="50" height="50" relative="1" as="geometry">
            <mxPoint x="240" y="269.5" as="sourcePoint" />
            <mxPoint x="330" y="269.5" as="targetPoint" />
          </mxGeometry>
        </mxCell>
        <mxCell id="1cu4soE6AQDdloq3SPaZ-7" value="" style="shape=flexArrow;endArrow=classic;html=1;fontSize=16;verticalAlign=middle;" edge="1" parent="1">
          <mxGeometry width="50" height="50" relative="1" as="geometry">
            <mxPoint x="590" y="269.5" as="sourcePoint" />
            <mxPoint x="500" y="269.5" as="targetPoint" />
          </mxGeometry>
        </mxCell>
        <mxCell id="1cu4soE6AQDdloq3SPaZ-8" value="3. 使用资源" style="text;html=1;align=center;verticalAlign=middle;resizable=0;points=[];autosize=1;fontSize=16;" vertex="1" parent="1">
          <mxGeometry x="220" y="210" width="100" height="20" as="geometry" />
        </mxCell>
        <mxCell id="1cu4soE6AQDdloq3SPaZ-9" value="2. 想要获取资源，被阻塞" style="text;html=1;align=center;verticalAlign=middle;resizable=0;points=[];autosize=1;fontSize=16;" vertex="1" parent="1">
          <mxGeometry x="455" y="210" width="190" height="20" as="geometry" />
        </mxCell>
        <mxCell id="1cu4soE6AQDdloq3SPaZ-10" value="4. 使用完毕后，释放资源" style="text;html=1;align=center;verticalAlign=middle;resizable=0;points=[];autosize=1;fontSize=16;" vertex="1" parent="1">
          <mxGeometry x="185" y="370" width="190" height="20" as="geometry" />
        </mxCell>
        <mxCell id="1cu4soE6AQDdloq3SPaZ-11" value="5. 被唤醒，并获取资源" style="text;html=1;align=center;verticalAlign=middle;resizable=0;points=[];autosize=1;fontSize=16;" vertex="1" parent="1">
          <mxGeometry x="465" y="370" width="180" height="20" as="geometry" />
        </mxCell>
        <mxCell id="1cu4soE6AQDdloq3SPaZ-14" value="1. 获取资源" style="text;html=1;align=center;verticalAlign=middle;resizable=0;points=[];autosize=1;fontSize=16;" vertex="1" parent="1">
          <mxGeometry x="230" y="130" width="100" height="20" as="geometry" />
        </mxCell>
      </root>
    </mxGraphModel>
  </diagram>
</mxfile>
